<mxfile host="app.diagrams.net" agent="Mozilla/5.0 (Macintosh; Intel Mac OS X 10_15_7) AppleWebKit/537.36 (KHTML, like Gecko) Chrome/138.0.0.0 Safari/537.36" version="28.1.2" pages="2">
  <diagram name="Pokemon Scraper Architecture" id="VL7GVqtdrI3ahUQLlkzp">
    <mxGraphModel dx="731" dy="857" grid="1" gridSize="10" guides="1" tooltips="1" connect="1" arrows="1" fold="1" page="1" pageScale="1" pageWidth="827" pageHeight="1169" math="0" shadow="0">
      <root>
        <mxCell id="0" />
        <mxCell id="1" parent="0" />
        <mxCell id="27uy4rgqvoLfd5OjutVs-1" value="ðŸ‘¤ Utilisateur&#xa;IAM" style="shape=ellipse;fillColor=#dae8fc;strokeColor=#6c8ebf;fontSize=14;fontStyle=1" vertex="1" parent="1">
          <mxGeometry x="20" y="200" width="180" height="150" as="geometry" />
        </mxCell>
        <mxCell id="27uy4rgqvoLfd5OjutVs-2" value="ðŸ’» EC2 Instance Linux&#xa;(Scraper Python)" style="shape=rectangle;rounded=1;fillColor=#ffe6cc;strokeColor=#d79b00;fontSize=14;fontStyle=1" vertex="1" parent="1">
          <mxGeometry x="300" y="180" width="200" height="120" as="geometry" />
        </mxCell>
        <mxCell id="27uy4rgqvoLfd5OjutVs-3" value="ðŸª£ S3 Bucket&lt;br&gt;images/Generation_X/&lt;div&gt;&lt;span style=&quot;font-weight: 400; text-align: start; font-size: 10pt; line-height: 15.3333px; font-family: Arial, sans-serif; color: rgb(78, 149, 217);&quot;&gt;pokemon-scraper-hadil&lt;/span&gt;&lt;span style=&quot;font-size: medium; font-weight: 400; text-align: start;&quot;&gt;&lt;/span&gt;&lt;/div&gt;" style="shape=cylinder;whiteSpace=wrap;html=1;boundedLbl=1;fillColor=#d5e8d4;strokeColor=#82b366;fontSize=14;fontStyle=1" vertex="1" parent="1">
          <mxGeometry x="580" y="180" width="190" height="190" as="geometry" />
        </mxCell>
        <mxCell id="27uy4rgqvoLfd5OjutVs-4" style="endArrow=block;strokeColor=#6c8ebf;" edge="1" parent="1" source="27uy4rgqvoLfd5OjutVs-1" target="27uy4rgqvoLfd5OjutVs-2">
          <mxGeometry relative="1" as="geometry" />
        </mxCell>
        <mxCell id="27uy4rgqvoLfd5OjutVs-5" style="endArrow=block;strokeColor=#82b366;" edge="1" parent="1" source="27uy4rgqvoLfd5OjutVs-2" target="27uy4rgqvoLfd5OjutVs-3">
          <mxGeometry relative="1" as="geometry" />
        </mxCell>
        <mxCell id="27uy4rgqvoLfd5OjutVs-6" value="Connexion en SSH" style="text;html=1;align=center;verticalAlign=middle;whiteSpace=wrap;rounded=0;" vertex="1" parent="1">
          <mxGeometry x="210" y="225" width="60" height="30" as="geometry" />
        </mxCell>
        <mxCell id="27uy4rgqvoLfd5OjutVs-8" value="IAM Role â†’ permissions limitÃ©es S3" style="text;html=1;align=center;verticalAlign=middle;whiteSpace=wrap;rounded=0;" vertex="1" parent="1">
          <mxGeometry x="310" y="260" width="180" height="30" as="geometry" />
        </mxCell>
        <mxCell id="27uy4rgqvoLfd5OjutVs-11" value="Access Key + Secret Key" style="text;html=1;align=center;verticalAlign=middle;whiteSpace=wrap;rounded=0;" vertex="1" parent="1">
          <mxGeometry x="30" y="290" width="160" height="30" as="geometry" />
        </mxCell>
      </root>
    </mxGraphModel>
  </diagram>
  <diagram id="9yp3ivm4WdT2OcnXW7V3" name="Page-2">
    <mxGraphModel dx="976" dy="681" grid="0" gridSize="10" guides="1" tooltips="1" connect="1" arrows="1" fold="1" page="0" pageScale="1" pageWidth="827" pageHeight="1169" math="0" shadow="0">
      <root>
        <mxCell id="0" />
        <mxCell id="1" parent="0" />
        <mxCell id="58PNxg99ludfWAVW1OJn-1" value="ðŸ‘¤ Utilisateur&#xa;IAM" style="shape=ellipse;fillColor=#dae8fc;strokeColor=#6c8ebf;fontSize=14;fontStyle=1" vertex="1" parent="1">
          <mxGeometry x="133" y="73.5" width="180" height="150" as="geometry" />
        </mxCell>
        <mxCell id="58PNxg99ludfWAVW1OJn-2" value="ðŸ’» EC2 Instance Linux&#xa;(Scraper Python)" style="shape=rectangle;rounded=1;fillColor=#ffe6cc;strokeColor=#d79b00;fontSize=14;fontStyle=1" vertex="1" parent="1">
          <mxGeometry x="413" y="53.5" width="200" height="120" as="geometry" />
        </mxCell>
        <mxCell id="58PNxg99ludfWAVW1OJn-3" value="ðŸª£ S3 Bucket&#xa;images/Generation_X/" style="shape=cylinder;whiteSpace=wrap;html=1;boundedLbl=1;fillColor=#d5e8d4;strokeColor=#82b366;fontSize=14;fontStyle=1" vertex="1" parent="1">
          <mxGeometry x="693" y="53.5" width="180" height="190" as="geometry" />
        </mxCell>
        <mxCell id="58PNxg99ludfWAVW1OJn-4" style="endArrow=block;strokeColor=#6c8ebf;" edge="1" parent="1" source="58PNxg99ludfWAVW1OJn-1" target="58PNxg99ludfWAVW1OJn-2">
          <mxGeometry relative="1" as="geometry" />
        </mxCell>
        <mxCell id="58PNxg99ludfWAVW1OJn-5" style="endArrow=block;strokeColor=#82b366;" edge="1" parent="1" source="58PNxg99ludfWAVW1OJn-2" target="58PNxg99ludfWAVW1OJn-3">
          <mxGeometry relative="1" as="geometry" />
        </mxCell>
        <mxCell id="58PNxg99ludfWAVW1OJn-6" value="Connexion en SSH" style="text;html=1;align=center;verticalAlign=middle;whiteSpace=wrap;rounded=0;" vertex="1" parent="1">
          <mxGeometry x="323" y="98.5" width="60" height="30" as="geometry" />
        </mxCell>
        <mxCell id="58PNxg99ludfWAVW1OJn-7" value="IAM Role â†’ permissions limitÃ©es S3" style="text;html=1;align=center;verticalAlign=middle;whiteSpace=wrap;rounded=0;" vertex="1" parent="1">
          <mxGeometry x="423" y="133.5" width="180" height="30" as="geometry" />
        </mxCell>
        <mxCell id="58PNxg99ludfWAVW1OJn-8" value="(accessibles publiquement via URL)" style="text;html=1;align=center;verticalAlign=middle;whiteSpace=wrap;rounded=0;" vertex="1" parent="1">
          <mxGeometry x="708" y="193.5" width="150" height="30" as="geometry" />
        </mxCell>
        <mxCell id="58PNxg99ludfWAVW1OJn-9" value="Access Key + Secret Key" style="text;html=1;align=center;verticalAlign=middle;whiteSpace=wrap;rounded=0;" vertex="1" parent="1">
          <mxGeometry x="143" y="163.5" width="160" height="30" as="geometry" />
        </mxCell>
      </root>
    </mxGraphModel>
  </diagram>
</mxfile>
